HIERARCHY
ROOT Hip
{
	OFFSET 1.592892 -1.882003 0.049340
	CHANNELS 6 Xposition Yposition Zposition Xrotation Yrotation Zrotation
	JOINT LowerSpine
	{
		OFFSET -0.000000 0.154692 0.259874
		CHANNELS 6 Xposition Yposition Zposition Xrotation Yrotation Zrotation
		JOINT MiddleSpine
		{
			OFFSET -0.000000 -0.011152 0.237154
			CHANNELS 3 Xrotation Yrotation Zrotation
			JOINT Chest
			{
				OFFSET 0.000000 0.058786 0.293449
				CHANNELS 3 Xrotation Yrotation Zrotation
				JOINT Neck
				{
					OFFSET -0.000000 0.012376 0.661279
					CHANNELS 6 Xposition Yposition Zposition Xrotation Yrotation Zrotation
					JOINT Head
					{
						OFFSET -0.000003 -0.101573 0.373433
						CHANNELS 3 Xrotation Yrotation Zrotation
						End Site
						{
							OFFSET 0.000000 -0.001601 0.053629
						}
					}
				}
				JOINT LClavicle
				{
					OFFSET 0.060085 -0.196776 0.638168
					CHANNELS 6 Xposition Yposition Zposition Xrotation Yrotation Zrotation
					JOINT LShoulder
					{
						OFFSET 0.351028 0.148114 0.091535
						CHANNELS 3 Xrotation Yrotation Zrotation
						JOINT LForearm
						{
							OFFSET 0.828500 0.007179 -0.002937
							CHANNELS 3 Xrotation Yrotation Zrotation
							JOINT LHand
							{
								OFFSET 0.691143 0.004141 0.002005
								CHANNELS 3 Xrotation Yrotation Zrotation
								JOINT LFinger1
								{
									OFFSET 0.267868 -0.074399 0.023427
									CHANNELS 6 Xposition Yposition Zposition Xrotation Yrotation Zrotation
									JOINT LFinger11
									{
										OFFSET 0.100195 -0.017654 -0.024433
										CHANNELS 3 Xrotation Yrotation Zrotation
										JOINT LFinger12
										{
											OFFSET 0.068401 -0.012057 -0.016682
											CHANNELS 3 Xrotation Yrotation Zrotation
											End Site
											{
												OFFSET 0.050801 -0.008241 -0.015164
											}
										}
									}
								}
								JOINT LFinger2
								{
									OFFSET 0.271866 -0.006476 0.027053
									CHANNELS 6 Xposition Yposition Zposition Xrotation Yrotation Zrotation
									JOINT LFinger21
									{
										OFFSET 0.123886 0.000731 0.000344
										CHANNELS 3 Xrotation Yrotation Zrotation
										JOINT LFinger22
										{
											OFFSET 0.068670 0.000417 0.000210
											CHANNELS 3 Xrotation Yrotation Zrotation
											End Site
											{
												OFFSET 0.053519 -0.000073 -0.003780
											}
										}
									}
								}
								JOINT LFinger3
								{
									OFFSET 0.257650 0.060956 0.018054
									CHANNELS 6 Xposition Yposition Zposition Xrotation Yrotation Zrotation
									JOINT LFinger31
									{
										OFFSET 0.112414 0.007039 -0.005692
										CHANNELS 3 Xrotation Yrotation Zrotation
										JOINT LFinger32
										{
											OFFSET 0.064058 0.004024 -0.003223
											CHANNELS 3 Xrotation Yrotation Zrotation
											End Site
											{
												OFFSET 0.053193 0.002514 -0.006540
											}
										}
									}
								}
								JOINT LFinger4
								{
									OFFSET 0.239089 0.105269 -0.018169
									CHANNELS 6 Xposition Yposition Zposition Xrotation Yrotation Zrotation
									JOINT LFinger41
									{
										OFFSET 0.069146 0.019087 -0.014420
										CHANNELS 3 Xrotation Yrotation Zrotation
										JOINT LFinger42
										{
											OFFSET 0.050705 0.014006 -0.010559
											CHANNELS 3 Xrotation Yrotation Zrotation
											End Site
											{
												OFFSET 0.050514 0.011590 -0.013879
											}
										}
									}
								}
								JOINT LFinger0
								{
									OFFSET 0.055412 -0.042009 -0.041941
									CHANNELS 6 Xposition Yposition Zposition Xrotation Yrotation Zrotation
									JOINT LFinger01
									{
										OFFSET 0.103169 -0.077784 -0.033880
										CHANNELS 3 Xrotation Yrotation Zrotation
										JOINT LFinger02
										{
											OFFSET 0.067933 -0.048944 -0.024310
											CHANNELS 3 Xrotation Yrotation Zrotation
											End Site
											{
												OFFSET 0.042584 -0.029159 -0.014659
											}
										}
									}
								}
							}
						}
					}
				}
				JOINT RClavicle
				{
					OFFSET -0.060085 -0.196776 0.638168
					CHANNELS 6 Xposition Yposition Zposition Xrotation Yrotation Zrotation
					JOINT RShoulder
					{
						OFFSET -0.351089 0.148140 0.091552
						CHANNELS 3 Xrotation Yrotation Zrotation
						JOINT RForearm
						{
							OFFSET -0.828500 0.007179 -0.002937
							CHANNELS 3 Xrotation Yrotation Zrotation
							JOINT RHand
							{
								OFFSET -0.691144 0.004141 0.002005
								CHANNELS 3 Xrotation Yrotation Zrotation
								JOINT RFinger1
								{
									OFFSET -0.267870 -0.074399 0.023431
									CHANNELS 6 Xposition Yposition Zposition Xrotation Yrotation Zrotation
									JOINT RFinger11
									{
										OFFSET -0.100195 -0.017654 -0.024433
										CHANNELS 3 Xrotation Yrotation Zrotation
										JOINT RFinger12
										{
											OFFSET -0.068401 -0.012057 -0.016688
											CHANNELS 3 Xrotation Yrotation Zrotation
											End Site
											{
												OFFSET -0.050801 -0.008241 -0.015164
											}
										}
									}
								}
								JOINT RFinger2
								{
									OFFSET -0.271866 -0.006479 0.027054
									CHANNELS 6 Xposition Yposition Zposition Xrotation Yrotation Zrotation
									JOINT RFinger21
									{
										OFFSET -0.123886 0.000731 0.000347
										CHANNELS 3 Xrotation Yrotation Zrotation
										JOINT RFinger22
										{
											OFFSET -0.068670 0.000420 0.000210
											CHANNELS 3 Xrotation Yrotation Zrotation
											End Site
											{
												OFFSET -0.053519 -0.000073 -0.003780
											}
										}
									}
								}
								JOINT RFinger3
								{
									OFFSET -0.257650 0.060956 0.018058
									CHANNELS 6 Xposition Yposition Zposition Xrotation Yrotation Zrotation
									JOINT RFinger31
									{
										OFFSET -0.112414 0.007039 -0.005692
										CHANNELS 3 Xrotation Yrotation Zrotation
										JOINT RFinger32
										{
											OFFSET -0.064061 0.004024 -0.003223
											CHANNELS 3 Xrotation Yrotation Zrotation
											End Site
											{
												OFFSET -0.053193 0.002514 -0.006540
											}
										}
									}
								}
								JOINT RFinger4
								{
									OFFSET -0.239089 0.105269 -0.018169
									CHANNELS 6 Xposition Yposition Zposition Xrotation Yrotation Zrotation
									JOINT RFinger41
									{
										OFFSET -0.069146 0.019088 -0.014420
										CHANNELS 3 Xrotation Yrotation Zrotation
										JOINT RFinger42
										{
											OFFSET -0.050705 0.014006 -0.010556
											CHANNELS 3 Xrotation Yrotation Zrotation
											End Site
											{
												OFFSET -0.050514 0.011591 -0.013879
											}
										}
									}
								}
								JOINT RFinger0
								{
									OFFSET -0.055412 -0.042006 -0.041938
									CHANNELS 6 Xposition Yposition Zposition Xrotation Yrotation Zrotation
									JOINT RFinger01
									{
										OFFSET -0.103169 -0.077787 -0.033886
										CHANNELS 3 Xrotation Yrotation Zrotation
										JOINT RFinger02
										{
											OFFSET -0.067934 -0.048944 -0.024307
											CHANNELS 3 Xrotation Yrotation Zrotation
											End Site
											{
												OFFSET -0.042585 -0.029159 -0.014659
											}
										}
									}
								}
							}
						}
					}
				}
			}
		}
	}
	JOINT RThigh
	{
		OFFSET -0.307261 0.025206 0.117468
		CHANNELS 6 Xposition Yposition Zposition Xrotation Yrotation Zrotation
		JOINT RShin
		{
			OFFSET -0.022246 0.000000 -1.209169
			CHANNELS 3 Xrotation Yrotation Zrotation
			JOINT RFoot
			{
				OFFSET 0.000000 0.000000 -1.187332
				CHANNELS 3 Xrotation Yrotation Zrotation
				JOINT RToe
				{
					OFFSET 0.000000 -0.272888 -0.130497
					CHANNELS 3 Xrotation Yrotation Zrotation
					End Site
					{
						OFFSET 0.000000 -0.053652 0.000000
					}
				}
			}
		}
	}
	JOINT LThigh
	{
		OFFSET 0.307258 0.025206 0.117477
		CHANNELS 6 Xposition Yposition Zposition Xrotation Yrotation Zrotation
		JOINT LShin
		{
			OFFSET 0.022246 0.000000 -1.209177
			CHANNELS 3 Xrotation Yrotation Zrotation
			JOINT LFoot
			{
				OFFSET -0.000000 0.000000 -1.187332
				CHANNELS 3 Xrotation Yrotation Zrotation
				JOINT LToe
				{
					OFFSET -0.000000 -0.272891 -0.130500
					CHANNELS 3 Xrotation Yrotation Zrotation
					End Site
					{
						OFFSET 0.000000 -0.053652 0.000000
					}
				}
			}
		}
	}
}
MOTION
Frames: 4
Frame Time: 0.041667
1.868215 -1.046125 2.085635 23.143333 7.959748 -4.038649 -0.000000 0.154692 0.259873 0.000014 0.000003 -0.000009 2.421602 6.346368 6.708262 5.209712 21.937410 22.104302 0.000000 0.012376 0.661279 -37.666273 0.941780 0.641279 -3.104475 -5.539303 -0.311805 0.060086 -0.196776 0.638168 -0.000047 9.847120 0.000041 33.857859 28.493546 -52.703280 0.060492 -0.003368 -20.654200 -0.000002 0.000001 -0.000005 0.267867 -0.074399 0.023428 0.000011 0.000014 0.000014 0.000016 0.000016 0.000045 0.000054 0.000025 0.000120 0.271866 -0.006476 0.027054 0.000010 0.000016 0.000013 -0.000016 -0.000027 -0.000026 0.000010 -0.000041 -0.000057 0.257651 0.060956 0.018054 0.000010 0.000015 0.000005 0.000016 0.000007 0.000028 0.000005 0.000024 0.000058 0.239090 0.105269 -0.018169 0.000006 0.000009 0.000004 -0.000007 0.000005 0.000005 -0.000004 -0.000005 -0.000002 0.055412 -0.042008 -0.041941 0.000025 0.000012 0.000013 0.000010 -0.000012 0.000017 -0.000009 0.000006 -0.000012 -0.060085 -0.196776 0.638168 -0.000041 7.655980 0.000064 -26.044237 -36.404584 73.085715 0.098838 0.020899 36.555190 -10.281876 -6.341054 11.090373 -0.267871 -0.074398 0.023431 -0.000007 -0.000004 -0.000005 -0.000012 0.000027 0.000013 -0.000002 0.000005 0.000013 -0.271866 -0.006479 0.027054 0.000001 -0.000018 -0.000017 0.000003 0.000000 0.000013 -0.000002 -0.000003 0.000003 -0.257651 0.060957 0.018058 -0.000007 -0.000007 -0.000018 0.000003 -0.000002 -0.000015 0.000004 0.000012 0.000012 -0.239090 0.105269 -0.018168 -0.000006 0.000005 -0.000001 0.000008 0.000003 0.000014 -0.000005 -0.000009 0.000006 -0.055412 -0.042005 -0.041938 -0.000022 -0.000004 -0.000016 -0.000019 -0.000012 0.000012 0.000009 -0.000011 -0.000001 -0.313286 0.040178 0.153163 -30.532824 -30.303688 -8.537660 -0.647849 0.000003 -0.000000 -1.552139 -0.402162 0.807597 -0.000007 0.000008 -0.000005 0.311576 0.014515 0.092063 -52.052301 -2.496743 36.978299 58.802792 -0.000006 0.000007 1.786372 -0.475061 1.031730 -30.352944 0.000024 0.000002 
1.868215 -1.046125 2.085635 23.143333 7.959748 -4.038649 -0.000000 0.154692 0.259873 0.000014 0.000003 -0.000009 2.421602 6.346368 6.708262 5.209712 21.937410 22.104302 0.000000 0.012376 0.661279 -37.666273 0.941780 0.641279 -3.104475 -5.539303 -0.311805 0.060086 -0.196776 0.638168 -0.000047 9.847120 0.000041 33.857859 28.493546 -52.703280 0.060492 -0.003368 -20.654200 -0.000002 0.000001 -0.000005 0.267867 -0.074399 0.023428 0.000011 0.000014 0.000014 0.000016 0.000016 0.000045 0.000054 0.000025 0.000120 0.271866 -0.006476 0.027054 0.000010 0.000016 0.000013 -0.000016 -0.000027 -0.000026 0.000010 -0.000041 -0.000057 0.257651 0.060956 0.018054 0.000010 0.000015 0.000005 0.000016 0.000007 0.000028 0.000005 0.000024 0.000058 0.239090 0.105269 -0.018169 0.000006 0.000009 0.000004 -0.000007 0.000005 0.000005 -0.000004 -0.000005 -0.000002 0.055412 -0.042008 -0.041941 0.000025 0.000012 0.000013 0.000010 -0.000012 0.000017 -0.000009 0.000006 -0.000012 -0.060085 -0.196776 0.638168 -0.000041 7.655980 0.000064 -26.044237 -36.404584 73.085715 0.098838 0.020899 36.555190 -10.281876 -6.341054 11.090373 -0.267871 -0.074398 0.023431 -0.000007 -0.000004 -0.000005 -0.000012 0.000027 0.000013 -0.000002 0.000005 0.000013 -0.271866 -0.006479 0.027054 0.000001 -0.000018 -0.000017 0.000003 0.000000 0.000013 -0.000002 -0.000003 0.000003 -0.257651 0.060957 0.018058 -0.000007 -0.000007 -0.000018 0.000003 -0.000002 -0.000015 0.000004 0.000012 0.000012 -0.239090 0.105269 -0.018168 -0.000006 0.000005 -0.000001 0.000008 0.000003 0.000014 -0.000005 -0.000009 0.000006 -0.055412 -0.042005 -0.041938 -0.000022 -0.000004 -0.000016 -0.000019 -0.000012 0.000012 0.000009 -0.000011 -0.000001 -0.313286 0.040178 0.153163 -30.532824 -30.303688 -8.537660 -0.647849 0.000003 -0.000000 -1.552139 -0.402162 0.807597 -0.000007 0.000008 -0.000005 0.311576 0.014515 0.092063 -52.052301 -2.496743 36.978299 58.802792 -0.000006 0.000007 1.786372 -0.475061 1.031730 -30.352944 0.000024 0.000002 
1.841486 -1.034946 2.081219 23.432564 8.278096 -3.320641 -0.000000 0.154692 0.259874 0.000015 0.000004 -0.000009 2.479165 6.137225 6.814491 5.462022 21.296170 22.449394 -0.000000 0.012376 0.661279 -37.582180 1.937695 1.307882 -4.051193 -4.649407 -0.308038 0.060085 -0.196776 0.638168 -0.000047 9.739233 0.000051 33.116999 29.360518 -54.385197 0.054388 -0.002703 -19.256731 -0.000002 0.000001 -0.000005 0.267867 -0.074399 0.023428 0.000010 0.000012 0.000012 0.000019 0.000015 0.000048 0.000055 0.000025 0.000122 0.271866 -0.006476 0.027053 0.000012 0.000016 0.000013 -0.000017 -0.000028 -0.000027 0.000008 -0.000041 -0.000056 0.257650 0.060956 0.018054 0.000010 0.000014 0.000004 0.000017 0.000006 0.000029 0.000005 0.000024 0.000058 0.239089 0.105269 -0.018169 0.000006 0.000006 0.000004 -0.000007 0.000004 0.000004 -0.000006 -0.000006 -0.000003 0.055412 -0.042008 -0.041942 0.000026 0.000013 0.000012 0.000009 -0.000011 0.000015 -0.000003 0.000002 -0.000012 -0.060085 -0.196776 0.638168 -0.000037 8.115705 0.000067 -27.045049 -37.600413 72.595458 0.091860 0.018738 34.817733 -16.958310 -13.108007 18.326180 -0.267870 -0.074398 0.023431 -0.000009 -0.000007 -0.000007 -0.000011 0.000026 0.000013 -0.000000 0.000006 0.000016 -0.271866 -0.006479 0.027054 -0.000000 -0.000019 -0.000018 0.000004 0.000001 0.000014 -0.000002 -0.000004 0.000004 -0.257650 0.060957 0.018058 -0.000004 -0.000006 -0.000019 0.000003 -0.000003 -0.000014 -0.000002 0.000011 0.000007 -0.239089 0.105269 -0.018168 0.000002 0.000006 -0.000004 0.000006 0.000000 0.000015 0.000004 -0.000008 -0.000003 -0.055412 -0.042006 -0.041938 -0.000024 -0.000004 -0.000016 -0.000021 -0.000012 0.000015 0.000007 -0.000013 -0.000003 -0.313165 0.040037 0.153137 -31.225436 -30.843987 -9.073585 -0.986911 0.000004 -0.000001 -1.566042 -0.563679 1.137400 -0.000008 0.000007 -0.000004 0.311576 0.014515 0.092064 -53.233729 -2.786954 35.877939 60.109073 -0.000008 0.000003 0.983636 -0.521008 1.117359 -29.630744 0.000019 0.000005 
1.819251 -1.026346 2.076841 23.585871 8.356543 -3.035353 -0.000000 0.154691 0.259873 0.000015 0.000004 -0.000010 2.486062 6.065900 6.822411 5.526031 21.082632 22.496382 -0.000000 0.012376 0.661279 -37.501061 2.277719 1.535319 -4.360315 -4.423551 -0.305842 0.060086 -0.196776 0.638168 0.000887 9.737901 0.001762 32.245538 29.544799 -54.569305 0.051039 -0.003678 -19.044509 -0.000001 0.000001 -0.000004 0.267867 -0.074399 0.023428 0.000012 0.000014 0.000013 0.000019 0.000014 0.000047 0.000051 0.000027 0.000118 0.271866 -0.006476 0.027053 0.000012 0.000017 0.000013 -0.000015 -0.000027 -0.000026 0.000009 -0.000041 -0.000056 0.257651 0.060956 0.018054 0.000012 0.000015 0.000004 0.000017 0.000006 0.000030 0.000005 0.000023 0.000057 0.239089 0.105269 -0.018169 0.000006 0.000009 0.000003 -0.000007 0.000005 0.000006 -0.000005 -0.000003 -0.000000 0.055412 -0.042008 -0.041942 0.000026 0.000015 0.000010 0.000010 -0.000011 0.000013 -0.000009 0.000002 -0.000011 -0.060086 -0.196776 0.638168 -0.000041 8.292495 0.000063 -27.553248 -37.829747 73.355487 0.086983 0.016057 32.771992 -21.804978 -19.885392 23.325986 -0.267870 -0.074399 0.023431 -0.000008 -0.000005 -0.000006 -0.000020 0.000028 0.000015 -0.000005 0.000008 0.000015 -0.271866 -0.006479 0.027054 0.000001 -0.000020 -0.000018 0.000005 0.000001 0.000012 -0.000006 -0.000004 0.000004 -0.257650 0.060957 0.018058 -0.000002 -0.000006 -0.000018 0.000001 -0.000003 -0.000016 0.000008 0.000012 0.000008 -0.239089 0.105269 -0.018168 0.000001 0.000005 -0.000004 0.000007 0.000000 0.000013 -0.000002 -0.000010 -0.000002 -0.055412 -0.042006 -0.041938 -0.000021 -0.000007 -0.000016 -0.000017 -0.000011 0.000011 0.000009 -0.000013 -0.000004 -0.312962 0.039801 0.153093 -31.748406 -31.329685 -9.432598 -1.032591 0.000005 -0.000001 -1.068553 -0.436321 0.891170 -0.000007 0.000007 -0.000004 0.311575 0.014516 0.092065 -54.157390 -3.248609 35.166892 61.205906 -0.000002 0.000008 0.589567 -0.411699 0.872237 -29.139937 0.000016 0.000004 
